<?xml version="1.0" encoding="utf-8" standalone="no"?>
<!DOCTYPE svg PUBLIC "-//W3C//DTD SVG 1.1//EN"
  "http://www.w3.org/Graphics/SVG/1.1/DTD/svg11.dtd">
<svg height="345.6pt" version="1.1" viewBox="0 0 460.8 345.6" width="460.8pt" xmlns="http://www.w3.org/2000/svg" xmlns:xlink="http://www.w3.org/1999/xlink">
 <metadata>
  <rdf:RDF xmlns:cc="http://creativecommons.org/ns#" xmlns:dc="http://purl.org/dc/elements/1.1/" xmlns:rdf="http://www.w3.org/1999/02/22-rdf-syntax-ns#">
   <cc:Work>
    <dc:type rdf:resource="http://purl.org/dc/dcmitype/StillImage"/>
    <dc:date>2022-10-27T02:37:47.712664</dc:date>
    <dc:format>image/svg+xml</dc:format>
    <dc:creator>
     <cc:Agent>
      <dc:title>Matplotlib v3.4.2, https://matplotlib.org/</dc:title>
     </cc:Agent>
    </dc:creator>
   </cc:Work>
  </rdf:RDF>
 </metadata>
 <defs>
  <style type="text/css">*{stroke-linecap:butt;stroke-linejoin:round;}</style>
 </defs>
 <g id="figure_1">
  <g id="patch_1">
   <path d="M 0 345.6 
L 460.8 345.6 
L 460.8 0 
L 0 0 
z
" style="fill:none;"/>
  </g>
  <g id="axes_1">
   <g id="PatchCollection_1">
    <path clip-path="url(#pa26cffa961)" d="M 102.78439 295.813147 
C 114.52777 295.813147 125.791752 291.147452 134.095575 282.843629 
C 142.399399 274.539806 147.065093 263.275824 147.065093 251.532444 
C 147.065093 239.789065 142.399399 228.525083 134.095575 220.221259 
C 125.791752 211.917436 114.52777 207.251742 102.78439 207.251742 
C 91.041011 207.251742 79.777029 211.917436 71.473205 220.221259 
C 63.169382 228.525083 58.503688 239.789065 58.503688 251.532444 
C 58.503688 263.275824 63.169382 274.539806 71.473205 282.843629 
C 79.777029 291.147452 91.041011 295.813147 102.78439 295.813147 
z
" style="fill:#80ffb4;stroke:#000000;stroke-width:0.7;"/>
    <path clip-path="url(#pa26cffa961)" d="M 191.701463 295.813147 
C 203.444843 295.813147 214.708825 291.147452 223.012648 282.843629 
C 231.316472 274.539806 235.982166 263.275824 235.982166 251.532444 
C 235.982166 239.789065 231.316472 228.525083 223.012648 220.221259 
C 214.708825 211.917436 203.444843 207.251742 191.701463 207.251742 
C 179.958084 207.251742 168.694102 211.917436 160.390278 220.221259 
C 152.086455 228.525083 147.420761 239.789065 147.420761 251.532444 
C 147.420761 263.275824 152.086455 274.539806 160.390278 282.843629 
C 168.694102 291.147452 179.958084 295.813147 191.701463 295.813147 
z
" style="fill:#80ffb4;stroke:#000000;stroke-width:0.7;"/>
    <path clip-path="url(#pa26cffa961)" d="M 280.618537 295.813147 
C 292.361916 295.813147 303.625898 291.147452 311.929722 282.843629 
C 320.233545 274.539806 324.899239 263.275824 324.899239 251.532444 
C 324.899239 239.789065 320.233545 228.525083 311.929722 220.221259 
C 303.625898 211.917436 292.361916 207.251742 280.618537 207.251742 
C 268.875157 207.251742 257.611175 211.917436 249.307352 220.221259 
C 241.003528 228.525083 236.337834 239.789065 236.337834 251.532444 
C 236.337834 263.275824 241.003528 274.539806 249.307352 282.843629 
C 257.611175 291.147452 268.875157 295.813147 280.618537 295.813147 
z
" style="fill:#80ffb4;stroke:#000000;stroke-width:0.7;"/>
    <path clip-path="url(#pa26cffa961)" d="M 147.242927 218.808702 
C 158.986306 218.808702 170.250288 214.143008 178.554112 205.839185 
C 186.857935 197.535362 191.523629 186.27138 191.523629 174.528 
C 191.523629 162.78462 186.857935 151.520638 178.554112 143.216815 
C 170.250288 134.912992 158.986306 130.247298 147.242927 130.247298 
C 135.499547 130.247298 124.235565 134.912992 115.931742 143.216815 
C 107.627919 151.520638 102.962224 162.78462 102.962224 174.528 
C 102.962224 186.27138 107.627919 197.535362 115.931742 205.839185 
C 124.235565 214.143008 135.499547 218.808702 147.242927 218.808702 
z
" style="fill:#80ffb4;stroke:#000000;stroke-width:0.7;"/>
    <path clip-path="url(#pa26cffa961)" d="M 236.16 218.808702 
C 247.90338 218.808702 259.167362 214.143008 267.471185 205.839185 
C 275.775008 197.535362 280.440702 186.27138 280.440702 174.528 
C 280.440702 162.78462 275.775008 151.520638 267.471185 143.216815 
C 259.167362 134.912992 247.90338 130.247298 236.16 130.247298 
C 224.41662 130.247298 213.152638 134.912992 204.848815 143.216815 
C 196.544992 151.520638 191.879298 162.78462 191.879298 174.528 
C 191.879298 186.27138 196.544992 197.535362 204.848815 205.839185 
C 213.152638 214.143008 224.41662 218.808702 236.16 218.808702 
z
" style="fill:#80ffb4;stroke:#000000;stroke-width:0.7;"/>
    <path clip-path="url(#pa26cffa961)" d="M 325.077073 218.808702 
C 336.820453 218.808702 348.084435 214.143008 356.388258 205.839185 
C 364.692081 197.535362 369.357776 186.27138 369.357776 174.528 
C 369.357776 162.78462 364.692081 151.520638 356.388258 143.216815 
C 348.084435 134.912992 336.820453 130.247298 325.077073 130.247298 
C 313.333694 130.247298 302.069712 134.912992 293.765888 143.216815 
C 285.462065 151.520638 280.796371 162.78462 280.796371 174.528 
C 280.796371 186.27138 285.462065 197.535362 293.765888 205.839185 
C 302.069712 214.143008 313.333694 218.808702 325.077073 218.808702 
z
" style="fill:#80ffb4;stroke:#000000;stroke-width:0.7;"/>
    <path clip-path="url(#pa26cffa961)" d="M 191.701463 141.804258 
C 203.444843 141.804258 214.708825 137.138564 223.012648 128.834741 
C 231.316472 120.530917 235.982166 109.266935 235.982166 97.523556 
C 235.982166 85.780176 231.316472 74.516194 223.012648 66.212371 
C 214.708825 57.908548 203.444843 53.242853 191.701463 53.242853 
C 179.958084 53.242853 168.694102 57.908548 160.390278 66.212371 
C 152.086455 74.516194 147.420761 85.780176 147.420761 97.523556 
C 147.420761 109.266935 152.086455 120.530917 160.390278 128.834741 
C 168.694102 137.138564 179.958084 141.804258 191.701463 141.804258 
z
" style="fill:#80ffb4;stroke:#000000;stroke-width:0.7;"/>
    <path clip-path="url(#pa26cffa961)" d="M 280.618537 141.804258 
C 292.361916 141.804258 303.625898 137.138564 311.929722 128.834741 
C 320.233545 120.530917 324.899239 109.266935 324.899239 97.523556 
C 324.899239 85.780176 320.233545 74.516194 311.929722 66.212371 
C 303.625898 57.908548 292.361916 53.242853 280.618537 53.242853 
C 268.875157 53.242853 257.611175 57.908548 249.307352 66.212371 
C 241.003528 74.516194 236.337834 85.780176 236.337834 97.523556 
C 236.337834 109.266935 241.003528 120.530917 249.307352 128.834741 
C 257.611175 137.138564 268.875157 141.804258 280.618537 141.804258 
z
" style="fill:#80ffb4;stroke:#000000;stroke-width:0.7;"/>
    <path clip-path="url(#pa26cffa961)" d="M 369.53561 141.804258 
C 381.278989 141.804258 392.542971 137.138564 400.846795 128.834741 
C 409.150618 120.530917 413.816312 109.266935 413.816312 97.523556 
C 413.816312 85.780176 409.150618 74.516194 400.846795 66.212371 
C 392.542971 57.908548 381.278989 53.242853 369.53561 53.242853 
C 357.79223 53.242853 346.528248 57.908548 338.224425 66.212371 
C 329.920601 74.516194 325.254907 85.780176 325.254907 97.523556 
C 325.254907 109.266935 329.920601 120.530917 338.224425 128.834741 
C 346.528248 137.138564 357.79223 141.804258 369.53561 141.804258 
z
" style="fill:#80ffb4;stroke:#000000;stroke-width:0.7;"/>
   </g>
   <g id="Quiver_1">
    <path clip-path="url(#pa26cffa961)" d="M 141.910628 230.739671 
L 77.342401 268.018154 
L 80.246028 269.935285 
L 64.436177 273.672795 
L 75.577882 261.849818 
L 75.786353 265.322998 
L 140.354579 228.044515 
L 141.910628 230.739671 
"/>
    <path clip-path="url(#pa26cffa961)" d="M 154.131275 228.044515 
L 218.699501 265.322998 
L 218.907972 261.849818 
L 230.049677 273.672795 
L 214.239826 269.935285 
L 217.143452 268.018154 
L 152.575226 230.739671 
L 154.131275 228.044515 
"/>
    <path clip-path="url(#pa26cffa961)" d="M 279.062488 295.813147 
L 279.062488 221.256181 
L 275.95039 222.81223 
L 280.618537 207.251742 
L 285.286683 222.81223 
L 282.174585 221.256181 
L 282.174585 295.813147 
L 279.062488 295.813147 
"/>
    <path clip-path="url(#pa26cffa961)" d="M 145.686878 218.808702 
L 145.686878 144.251737 
L 142.57478 145.807785 
L 147.242927 130.247298 
L 151.911073 145.807785 
L 148.798976 144.251737 
L 148.798976 218.808702 
L 145.686878 218.808702 
"/>
    <path clip-path="url(#pa26cffa961)" d="M 275.286238 153.735227 
L 210.718011 191.013709 
L 213.621638 192.930841 
L 197.811787 196.668351 
L 208.953491 184.845374 
L 209.161962 188.318554 
L 273.730189 151.040071 
L 275.286238 153.735227 
"/>
    <path clip-path="url(#pa26cffa961)" d="M 287.506884 151.040071 
L 352.075111 188.318554 
L 352.283582 184.845374 
L 363.425286 196.668351 
L 347.615435 192.930841 
L 350.519062 191.013709 
L 285.950836 153.735227 
L 287.506884 151.040071 
"/>
    <path clip-path="url(#pa26cffa961)" d="M 154.131275 74.035627 
L 218.699501 111.31411 
L 218.907972 107.84093 
L 230.049677 119.663907 
L 214.239826 115.926396 
L 217.143452 114.009265 
L 152.575226 76.730782 
L 154.131275 74.035627 
"/>
    <path clip-path="url(#pa26cffa961)" d="M 279.062488 141.804258 
L 279.062488 67.247292 
L 275.95039 68.803341 
L 280.618537 53.242853 
L 285.286683 68.803341 
L 282.174585 67.247292 
L 282.174585 141.804258 
L 279.062488 141.804258 
"/>
    <path clip-path="url(#pa26cffa961)" d="M 408.661847 76.730782 
L 344.093621 114.009265 
L 346.997247 115.926396 
L 331.187397 119.663907 
L 342.329101 107.84093 
L 342.537572 111.31411 
L 407.105799 74.035627 
L 408.661847 76.730782 
"/>
   </g>
  </g>
 </g>
 <defs>
  <clipPath id="pa26cffa961">
   <rect height="244.377669" width="357.12" x="57.6" y="52.339166"/>
  </clipPath>
 </defs>
</svg>
